<?xml version="1.0"?>
<svg xmlns="http://www.w3.org/2000/svg" id="Layer_1" data-name="Layer 1" viewBox="0 0 64 64"><title>Icons8 RSL Colored Part 7</title><path d="M59.72,52.5l-16,6.22a2,2,0,0,1-1.47,0L23.68,51.27a2,2,0,0,0-1.38,0l-16,5.33A1,1,0,0,1,5,55.61V16.44a2,2,0,0,1,1.37-1.9L22.3,9.23a2,2,0,0,1,1.38,0l18.59,7.43a2,2,0,0,0,1.47,0l15.9-6.18a1,1,0,0,1,1.36.93V50.63A2,2,0,0,1,59.72,52.5Z" style="fill:#faefde;"/><path d="M57,18V47.87a1,1,0,0,1-.64.93L43,54.54,22,46.37l-.05,0L10.32,50.23a1,1,0,0,1-1.32-1V19.39a1,1,0,0,1,.68-1L22,14.34l.65-.22a1,1,0,0,1,.69,0l19.29,7.71a1,1,0,0,0,.37.08,1,1,0,0,0,.37-.07l12.27-4.77A1,1,0,0,1,57,18Z" style="fill:#c5e4fa;"/><polygon points="43 59 22 51 22 9 43 17 43 59" style="fill:#fff7f0;"/><path d="M43,21.93V54.54L22,46.37v-32l.65-.22a1,1,0,0,1,.69,0l19.29,7.71A1,1,0,0,0,43,21.93Z" style="fill:#e3f2ff;"/><circle cx="47" cy="29" r="3" style="fill:#72caaf;"/><circle cx="26" cy="27" r="2" style="fill:#f9e3ae;"/><circle cx="19" cy="37" r="2" style="fill:#f9e3ae;"/><path d="M25,44.5a1,1,0,0,0-1,1v2a1,1,0,0,0,2,0v-2A1,1,0,0,0,25,44.5Z" style="fill:#8d6c9f;"/><path d="M30,46.5a1,1,0,0,0-1,1v2a1,1,0,0,0,2,0v-2A1,1,0,0,0,30,46.5Z" style="fill:#8d6c9f;"/><path d="M35,48.25a1,1,0,0,0-1,1v2a1,1,0,0,0,2,0v-2A1,1,0,0,0,35,48.25Z" style="fill:#8d6c9f;"/><path d="M40,50a1,1,0,0,0-1,1v2a1,1,0,0,0,2,0V51A1,1,0,0,0,40,50Z" style="fill:#8d6c9f;"/><path d="M61.13,9.81a2,2,0,0,0-1.85-.21l-15.9,6.18a1,1,0,0,1-.73,0L24.05,8.34A3,3,0,0,0,22,8.28L6.05,13.6A3,3,0,0,0,4,16.44V55.61a2,2,0,0,0,2.63,1.9l16-5.33a1,1,0,0,1,.69,0L41.9,59.64a3,3,0,0,0,2.2,0l16-6.22A3,3,0,0,0,62,50.63V11.46A2,2,0,0,0,61.13,9.81ZM60,50.63a1,1,0,0,1-.64.93l-16,6.22a1,1,0,0,1-.73,0L24.05,50.34A3,3,0,0,0,22,50.28L6,55.61V16.44a1,1,0,0,1,.68-.95l15.94-5.31a1,1,0,0,1,.69,0L41.9,17.64a3,3,0,0,0,2.2,0L60,11.46Z" style="fill:#8d6c9f;"/><path d="M23.71,13.21a2,2,0,0,0-1.37,0l-13,4.32A2,2,0,0,0,8,19.39V49.28a2,2,0,0,0,2.63,1.9l10.68-3.56a1,1,0,1,0-.63-1.9L10,49.28V19.39l13-4.32,19.29,7.72a2,2,0,0,0,1.47,0L56,18V47.87l-13.36,5.2A1,1,0,0,0,43,55a1,1,0,0,0,.36-.07l13.36-5.2A2,2,0,0,0,58,47.87V18a2,2,0,0,0-2.72-1.86L43,20.92Z" style="fill:#8d6c9f;"/><path d="M51,29a4,4,0,1,0-4,4A4,4,0,0,0,51,29Zm-6,0a2,2,0,1,1,2,2A2,2,0,0,1,45,29Z" style="fill:#8d6c9f;"/><path d="M40,44a8,8,0,0,0,8-8V35a1,1,0,0,0-2,0v1a6,6,0,0,1-12,0V34a8,8,0,0,0-5-7.43,3,3,0,0,0-5.92,0A8,8,0,0,0,18,34v.18a3,3,0,0,0,0,5.64V42a1,1,0,0,0,2,0V39.82a3,3,0,0,0,0-5.64V34a6,6,0,0,1,3.45-5.43,3,3,0,0,0,5.1,0A6,6,0,0,1,32,34v2A8,8,0,0,0,40,44ZM19,38a1,1,0,1,1,1-1A1,1,0,0,1,19,38Zm6-11a1,1,0,1,1,1,1A1,1,0,0,1,25,27Z" style="fill:#8d6c9f;"/></svg>
